# xmcd
#
# Track frame offsets:
#	150
#	15350
#	29837
#	44012
#	58990
#	72362
#	86090
#	99120
#	114595
#	127187
#
# Disc length: 1939 seconds
#
# Revision: 1
# Processed by: cddbd v1.5.2PL0 Copyright (c) Steve Scherf et al.
# Submitted via: audiograbber 1.83.01
#
DISCID=8e07910a
DTITLE=Various Artist - Original Divas  [CD1)
DYEAR=2002
DGENRE=Oldies
TTITLE0=Lena Horne - Stormy Weather  
TTITLE1=Billie Holiday - Any Old Time  
TTITLE2=Ella Fitzgerald - Goodnight, My Love  
TTITLE3=Ivie Anderson - I Got It Bad And That Ain't Good  
TTITLE4=Ethel Waters - Baby, What Else Can I Do  
TTITLE5=Mildred Bailey - Rockin' Chair  
TTITLE6=Faye Adams - Shake A Hand  
TTITLE7=Lil Green - Romance In The Dark  
TTITLE8=Etta Jones - I Sold My Heart To The Junkman 
TTITLE9=Morgana King -  My Funny Valentine  
EXTD=
EXTT0=
EXTT1=
EXTT2=
EXTT3=
EXTT4=
EXTT5=
EXTT6=
EXTT7=
EXTT8=
EXTT9=
PLAYORDER=
